<?xml version="1.0" standalone="no"?>
<!DOCTYPE svg PUBLIC "-//W3C//DTD SVG 20010904//EN"
 "http://www.w3.org/TR/2001/REC-SVG-20010904/DTD/svg10.dtd">
<svg version="1.0" xmlns="http://www.w3.org/2000/svg"
 width="512.000000pt" height="512.000000pt" viewBox="0 0 512.000000 512.000000"
 preserveAspectRatio="xMidYMid meet">
<metadata>
Created by potrace 1.14, written by Peter Selinger 2001-2017
</metadata>
<g transform="translate(0.000000,512.000000) scale(0.100000,-0.100000)"
fill="#000000" stroke="none">
<path d="M2489 5098 c-34 -23 -55 -60 -185 -333 -79 -165 -149 -309 -157 -322
-5 -7 -51 18 -142 78 -74 49 -146 91 -160 95 -36 9 -71 -2 -100 -34 -24 -24
-25 -32 -19 -82 9 -85 11 -93 17 -125 4 -16 9 -48 12 -70 3 -23 7 -52 10 -65
3 -13 7 -42 10 -65 3 -22 8 -47 10 -55 2 -8 7 -35 10 -60 4 -24 9 -48 11 -52
5 -8 -61 -9 -631 -8 -402 0 -425 -3 -499 -74 -79 -76 -81 -89 -80 -501 1 -340
2 -362 21 -405 40 -88 132 -152 228 -159 6 -1 10 -56 10 -146 0 -118 -3 -145
-14 -145 -44 0 -124 -37 -165 -77 -79 -77 -81 -87 -81 -498 l0 -360 28 -57
c29 -60 71 -97 140 -128 l43 -19 13 -83 c8 -46 16 -99 19 -118 3 -19 6 -48 6
-65 1 -27 -3 -30 -41 -36 -74 -13 -144 -65 -180 -132 -25 -49 -26 -62 -27
-432 l-1 -360 29 -58 c34 -70 98 -121 171 -137 35 -8 563 -10 1800 -8 l1750 3
46 27 c53 31 92 73 117 127 15 32 17 77 17 406 0 357 -1 372 -21 415 -40 83
-123 146 -202 152 -37 3 -34 -11 -36 170 l-1 127 39 7 c89 15 162 71 199 152
21 45 22 63 25 391 2 281 0 353 -12 395 -33 112 -118 181 -241 195 -10 1 -15
290 -5 292 3 0 19 3 35 5 85 14 161 73 199 154 20 43 21 63 24 390 2 230 -1
361 -9 392 -14 61 -67 130 -127 165 l-47 28 -475 2 c-261 2 -492 3 -513 3
l-39 0 7 57 c3 32 8 60 10 63 2 3 6 30 10 60 4 30 8 58 10 61 2 3 6 25 9 50 3
24 8 53 10 64 27 147 29 182 10 214 -21 36 -64 56 -103 48 -16 -3 -91 -47
-166 -96 l-137 -90 -57 117 c-32 64 -82 169 -112 232 -116 245 -143 295 -175
315 -44 30 -102 31 -145 3z"/>
</g>
</svg>
